<svg xmlns="http://www.w3.org/2000/svg" width="82" height="66.329" viewBox="0 0 82 66.329">
  <g id="Group_1337" data-name="Group 1337" transform="translate(0)">
    <path id="Path_1" data-name="Path 1" d="M4.568,55.651,8.025,16.732l9.79,21.14c1,.99,1.209-2.186,1.276-3.352l.9-14.286c.588-3.716,1.118-6.042,3.745-8.917,1.665-1.81,4.874.016,3.612,1.87-1.264,2.557-3.51,5.829-3.747,8.578L20.547,58.572,9.48,38.018,7.843,57.249C7.436,60.351,3.69,69.635.1,65.107c-.856-1.078,4.283-7.442,4.472-9.456" fill="#910d1b" fill-rule="evenodd"/>
    <path id="Path_2" data-name="Path 2" d="M45.837,41.827l-2.2-2.364a10.513,10.513,0,0,1-1.294,3.615c-.5.991-3.354,3.031-4.2,1.391-.373-.721,1.123-4.569.973-6.084s-.815-4.337-4.425-4.509a9.376,9.376,0,0,0-4.093.7A13.729,13.729,0,0,0,26.587,37.3c-2.294,2.119-3.414,5.739-3.513,8.821v.811a9.638,9.638,0,0,0,.126,1.392c.673,4.275,3.533,4.457,5.187,4.224a7.183,7.183,0,0,0,2.206-.937,30.179,30.179,0,0,0,2.963-1.961,7.616,7.616,0,0,0,3.242.779c4.474.087,9.137-5.509,9.251-7.856v-.166a.991.991,0,0,0-.212-.582m-13.4,3a6.28,6.28,0,0,1-1.843,3.286,2.507,2.507,0,0,1-.862.519A2.226,2.226,0,0,1,28.3,46.522c0-1.628-.154-4.938,1.427-7.044a9.809,9.809,0,0,1,.862-1.026c3.244-3.32,2.22,5.014,1.843,6.373" fill="#910d1b" fill-rule="evenodd"/>
    <path id="Path_3" data-name="Path 3" d="M55.234,35.811c-.85,2.139-2.766,4.536-5.887,3.867a2.192,2.192,0,0,1-1.6-1.151,3.016,3.016,0,0,1-.272-1.681s.091-.219.272-.644c.993-2.326,4.285-10.541,4.9-16.723.692-7.263-.355-12.922-3.888-13.114a3.083,3.083,0,0,0-1.013.1c-2.967.771-4.993,5.64-6.379,11.5-1.524,6.516-1.168,15.668,1.417,21.051,1.783,3.735,3.118,4.827,4.962,4.978a12.856,12.856,0,0,0,2.783-.174c3.541-.461,6.793-5.483,6.793-5.483-.706-.848-1.4-1.68-2.092-2.529m-9.41-3.4c0-1.5-1.524-3.586-.345-11.511.836-5.628,1.551-7.789,2.271-8.627a1.378,1.378,0,0,1,.9-.523c1.047-.191,3.16.938.587,10.472-.587,2.148-1.074,3.84-1.492,5.172-1.431,4.629-1.926,5.017-1.926,5.017" fill="#910d1b" fill-rule="evenodd"/>
    <path id="Path_4" data-name="Path 4" d="M65.147,31.143l.061.147c.018-.144-.061-.147-.061-.147m.061.147c-.037.229-.319.821-1.645,2.347-1.242,1.445-2.242,1.585-2.951,1.314a2.292,2.292,0,0,1-1.036-.839c-.17-.237.32-1.553,1.036-3.261,1.239-2.957,3.18-7.087,3.54-8.818.594-2.733,1.413-5.38,2-9.624s-1.052-8.3-1.874-9.248a2.936,2.936,0,0,0-3.663-.727,8.612,8.612,0,0,0-3.146,3.174C54.053,10.8,53.7,16.841,53,23.728c-.074.64-.1,1.27-.116,1.9v.5c.075,5.916,2.483,11.053,3.887,12.382,1.335,1.257,2.094,1.545,3.843.977.338-.109.723-.254,1.135-.431,2.613-1.07,4.639-4.751,4.639-4.751Zm-6.695-1.713c-1.954-.44-.122-11.274.35-13.392a41.692,41.692,0,0,1,1.749-6.691A3.577,3.577,0,0,1,62.281,7.4c1.994-.756,1.173,3.778.815,6.61A78.65,78.65,0,0,1,60.612,24.02c-.194.576-.351,1.038-.443,1.31-.593,1.517-1.656,4.247-1.656,4.247" fill="#910d1b" fill-rule="evenodd"/>
    <path id="Path_5" data-name="Path 5" d="M74.484,28.508s-.788,2.811-2.5,2.811-2.423-.786-1.01-7.3,1.051-6.332-.241-6.8c-1.291-.482-4.225,0-5.172,5.937s-.82,9.429.829,11.035,5.3,1.538,7.47-.745,2.353-3.769,2.014-4.429c-.365-.668-1.394-.513-1.394-.513" fill="#910d1b" fill-rule="evenodd"/>
    <path id="Path_6" data-name="Path 6" d="M71.029,13.443a2.983,2.983,0,0,0,3.113-2.836,3.123,3.123,0,0,0-6.217,0,2.979,2.979,0,0,0,3.1,2.836" fill="#910d1b" fill-rule="evenodd"/>
    <path id="Path_7" data-name="Path 7" d="M77.319,0A4.427,4.427,0,0,1,82,4.209a4.422,4.422,0,0,1-4.713,4.229,4.463,4.463,0,0,1-4.735-4.229A4.478,4.478,0,0,1,77.287,0Zm-.06.849a3.415,3.415,0,0,0-3.533,3.36,3.413,3.413,0,0,0,3.593,3.356,3.353,3.353,0,0,0,3.5-3.356A3.4,3.4,0,0,0,77.287.849Zm-.7,5.538H75.5V2.206a9.688,9.688,0,0,1,1.763-.152,2.735,2.735,0,0,1,1.6.335,1.108,1.108,0,0,1,.452.895c0,.488-.395.845-.95,1v.053a1.23,1.23,0,0,1,.837,1.025,2.674,2.674,0,0,0,.336,1.026H78.386a3.158,3.158,0,0,1-.368-1c-.083-.461-.366-.663-.956-.663h-.5Zm.025-2.357h.508c.589,0,1.067-.182,1.067-.615,0-.387-.311-.644-.981-.644a2.884,2.884,0,0,0-.594.055Z" fill="#910d1b"/>
  </g>
</svg>
